<?xml version="1.0" encoding="UTF-8"?>
<svg xmlns="http://www.w3.org/2000/svg" id="Layer_1" version="1.1" viewBox="0 0 950 200">
  <defs>
    <style>
      .st0 {
        fill: #fff;
      }
    </style>
  </defs>
  <g>
    <path class="st0" d="M59.9,111.4c1.6,6,3.8,7.8,9.5,10,1.6.6,2.6,2.2,2.3,3.7-.4,2-2.2,2.7-4.1,2.3-1.2-.2-2.2-1.2-3.5-1.3-2.3,0-4.6,1.3-6.2,2.8-3.1,2.9-4.9,6.8-5.6,11-1.4,9.9,6.8,17.3,15.9,18.1-.4-4.4.6-8.2,3.5-11.4-1.2-.7-2.4-.9-3.4-1.7-1.4-1-1.8-2.7-1.1-4.1.9-1.6,2.6-2,4.3-1.2,6,2.8,10.1-.2,11.1,3.6s-3.2,3.2-6.6,7.6c-2.5,3.2-2.4,7.4.3,10.5,2.1,2.5,5.2,3.6,8.5,3.3,7.3-.7,10.4-8.7,10.4-15.5v-24.4c-3.4,3-7.1,5.3-11.5,5.5-1.8,0-3.3-1.3-3.4-2.9s1.1-3.1,2.9-3.3c3.9-.5,7.3-2.8,9.3-6.2s2.6-7,2.6-11v-53.7c0-3.4-.5-6.4-2-9.3-4.3-8.5-15.2-9.6-22.4-4.2-2.4,1.8-4.1,4-5.6,6.8-1.8-1.2-3.5-2.4-5.3-3.8,3.8-6.5,10.1-11.3,17.6-12.4,9.3-1.3,18,3.3,21.9,11.9,6-12.5,19.4-15.5,31.4-10.8,5.8,2.4,10.1,6.8,12.6,12.4,13.4,2.7,22,14.9,19.2,28.3,5.4,2.1,9.2,6.2,11,11.5,2.7,7.9,1.8,16.9-4,23.4,3.5,4.6,4.6,10,3.6,15.7-1.4,7.5-6.3,13.7-13.6,16.2.6,14.8-12.8,27.9-27.5,24.8-4.3,5.5-10.7,8.3-17.6,7.4-6.4-.8-12.4-4.8-15-11.2-1.5,3.1-3.1,5.7-5.7,7.7-7.2,5.7-17.6,4.5-23.1-3-14.8,0-26.4-10.8-24.5-26-14.6-3.4-20.5-20.7-14.1-33.2l-23.5-18.2c-2.7-2.1-2.2-6.4.4-7.9,2.3-1.6,4.5-1.4,6.6.2l24.8,18.7c2.1,1.6,2.7,3.8,2.1,6.2s-3.5,2.5-4.7,3.9c-3.5,5.4-2.7,13,.8,18.2,2.3,3.5,5.6,5.6,9.6,6.3,2-4.6,5.1-8.4,9.5-10.9-2.2-2.9-6.4-11.8-1.2-12.6,1.5-.2,2.9.9,3.3,2.5h0ZM166.7,82.6c-1.8-3.1-4.8-5.1-8.3-5.5-1.8-.2-3.2.6-4.7,1.3s-3,0-3.7-1.3c-.7-1.3-.4-3,.9-4,1.6-1.3,3.5-1.8,5.7-2.2,2.6-8.9-3.2-18.1-11.9-20.7.3,11.4-8.4,20.3-19.7,20.3-2.3,2.6-4.6,5.1-7.7,6.5-1.6.7-3.5.3-4.2-1.1-2.2-4.3,4.9-4.2,8.1-11.2,1.9-4.3.5-8.8-3.5-11.2-1.5-.9-1.7-2.9-1-4.1.8-1.4,2.6-1.8,4.1-1,5.7,2.8,8.2,9,6.8,15.6,7.2-.9,11.9-7.6,11-14.8-.9-6.4-5.8-11.5-12-13.2-7.3-2-16.1-.5-20.2,6.7-1.5,2.7-2.6,5.8-2.6,9.3v98.5c0,3.9,1.8,7.7,4.3,10.3,3.8,4,9.9,4.9,14.7,2.7,3-1.3,5.4-3.9,6.6-6.9.7-1.8,1.6-3,3.6-2.7,1.5.3,2.5,1.7,2.5,3.6,4.8.6,9.2-1.1,12.5-4.3,4.6-4.5,6.7-10.8,5.4-17.2-.6-3.2,4.6-2.3,8.7-5.6,4.6-3.7,6.6-9.8,5.2-15.5-.9-3.5-3.2-6.2-6.2-7.9-1.9-1-3.8-1.5-5.8-2.3-6.4-2.3-12.5-9.2-8-11.7,1.4-.8,3.1-.3,4,1.1,3.7,5.7,8.4,4.6,14,8.1,5.4-5.1,5-13.8,1.5-19.8h0Z"></path>
    <path class="st0" d="M78.8,108.4l-27.2-23.9-9.3,11.5-25.4-19.3,22.8-29.2,25.4,18.8-8.6,11,29,21.3c2.5,2.1,3.2,5.6,1.3,8.2-1.6,2.3-5.5,3.7-8.1,1.4h0Z"></path>
    <path class="st0" d="M72,63.4c-2.2,1.6-4.6,1.7-6.7.1l-25.5-19.1c-2.2-1.7-1.2-5.2.1-6.7,2-2.2,5-2.4,7.3-.7l24.6,17.9c1.5,1.1,2.4,2.3,2.4,4,0,1.8-.7,3.4-2.3,4.5h0Z"></path>
    <path class="st0" d="M138.7,130.2c-1.6,7.6,6.7,7.1,4.7,11.7-.6,1.3-2.5,2.3-4.1,1.6-4.8-2.4-7.9-8-6.8-13.9-6.1-2-10.6-7-11.3-13.4-.2-1.9.6-3.4,2.4-3.7,1.6-.3,3.4.7,3.6,2.5.4,3.4,2.3,6.2,5.3,7.8,4.8,2.5,10.5.8,13.1-3.9.8-1.5,2.8-1.6,4-.8,1.3.9,1.8,2.6,1,4.2-2.2,4.5-6.7,7.2-12,7.9h0Z"></path>
    <path class="st0" d="M124.5,99c-4.6-.6-11.4,1.7-11.7-2.9,0-1.5,1.2-3.2,3-3.2,6.5,0,12.3,0,15.9-6,2.5-4.1,2-8,5.6-7.5,1.3.2,2.3,1.5,2.2,3.1-.5,5-3.1,9.5-7,12.9,2.9,1.6,10.5,9,5.5,11.6-1.2.6-3,.6-3.9-.9-2-3.5-5.2-6.5-9.5-7.1h0Z"></path>
    <path class="st0" d="M117.1,154.1c-1.9.7-3.6-.6-4.1-2s.2-3.1,1.8-3.8c2.7-1.1,4.8-3.7,5-6.7.2-4-2.3-7.2-5.7-8.8-1.4-.6-1.9-2.3-1.5-3.4.5-1.4,1.9-2.4,3.6-2,4.6,1.1,7.8,4.7,9.2,9.1,2.2,7.1-1,14.9-8.3,17.6h0Z"></path>
  </g>
  <g>
    <path class="st0" d="M206.2,162V51.9h44.1c8.1,0,14.9,1.2,20.3,3.6,5.4,2.4,9.5,5.7,12.2,10s4.1,9.1,4.1,14.6-.9,8.1-2.6,11.3-4.1,5.9-7.1,8c-3,2.1-6.4,3.5-10.2,4.4v1.1c4.2.2,8.1,1.4,11.8,3.5,3.7,2.2,6.6,5.2,9,9.2,2.3,3.9,3.4,8.6,3.4,14s-1.4,11-4.3,15.6c-2.9,4.6-7.1,8.2-12.8,10.8-5.6,2.7-12.6,4-20.8,4h-47ZM229.5,98h17.2c3.2,0,6-.6,8.5-1.7s4.5-2.7,5.9-4.8,2.2-4.6,2.2-7.5-1.4-7.2-4.2-9.6-6.8-3.7-12-3.7h-17.7v27.2h0ZM229.5,143h19c6.5,0,11.2-1.2,14.2-3.7,3-2.5,4.5-5.8,4.5-10s-.7-5.7-2.2-8.1-3.6-4.2-6.3-5.5c-2.7-1.3-5.9-2-9.6-2h-19.5v29.2h0Z"></path>
    <path class="st0" d="M313.5,68.8c-3.4,0-6.3-1.1-8.7-3.4s-3.6-5-3.6-8.2,1.2-5.9,3.6-8.2c2.4-2.3,5.3-3.4,8.7-3.4s6.3,1.1,8.7,3.4,3.6,5,3.6,8.2-1.2,5.9-3.6,8.2-5.3,3.4-8.7,3.4h0ZM302,162v-82.5h22.9v82.5h-22.9,0Z"></path>
    <path class="st0" d="M369.8,163.3c-6.3,0-11.9-1.6-17-4.9s-9.1-8-12-14.3c-3-6.3-4.4-14.1-4.4-23.3s1.5-17.3,4.6-23.6c3-6.3,7.1-11,12.2-14.1s10.6-4.7,16.7-4.7,8.5.8,11.6,2.3c3.1,1.6,5.6,3.5,7.5,5.8,1.9,2.3,3.4,4.6,4.4,6.8h.7v-41.4h22.8v110.1h-22.6v-13.2h-1c-1.1,2.3-2.6,4.6-4.5,6.8-2,2.2-4.5,4.1-7.6,5.6-3.1,1.5-6.9,2.2-11.3,2.2h0ZM377.1,145.1c3.7,0,6.8-1,9.4-3,2.6-2,4.5-4.9,5.9-8.5,1.4-3.7,2.1-7.9,2.1-12.8s-.7-9.2-2-12.8-3.3-6.4-5.9-8.4-5.7-3-9.4-3-6.9,1-9.5,3.1c-2.6,2-4.5,4.9-5.9,8.5s-2,7.8-2,12.6.7,9,2,12.7c1.3,3.7,3.3,6.5,5.9,8.6s5.7,3.1,9.5,3.1h0Z"></path>
    <path class="st0" d="M432.2,162V51.9h22.9v41.4h.7c1-2.2,2.5-4.5,4.4-6.8s4.4-4.2,7.5-5.8c3.1-1.6,7-2.3,11.6-2.3s11.6,1.6,16.7,4.7c5.1,3.1,9.2,7.8,12.2,14.1,3,6.3,4.6,14.2,4.6,23.6s-1.5,17-4.4,23.3c-3,6.3-7,11.1-12,14.3s-10.7,4.9-17,4.9-8.2-.7-11.3-2.2c-3.1-1.5-5.6-3.3-7.6-5.6s-3.5-4.5-4.5-6.8h-1v13.2h-22.6ZM454.6,120.7c0,4.9.7,9.2,2,12.8s3.3,6.5,5.9,8.5c2.6,2,5.7,3,9.4,3s6.9-1,9.5-3.1,4.5-4.9,5.9-8.6,2-7.9,2-12.7-.7-9-2-12.6c-1.3-3.6-3.3-6.5-5.9-8.5-2.6-2-5.8-3.1-9.5-3.1s-6.9,1-9.4,3c-2.6,2-4.5,4.8-5.9,8.4s-2,7.9-2,12.8h0Z"></path>
    <path class="st0" d="M524.1,162v-82.5h22.2v14.4h.9c1.5-5.1,4-9,7.6-11.6s7.6-4,12.2-4,2.4,0,3.7.2c1.3.1,2.5.3,3.5.6v20.3c-1.1-.3-2.6-.6-4.5-.9s-3.6-.4-5.2-.4c-3.4,0-6.4.7-9,2.2s-4.7,3.5-6.2,6c-1.5,2.6-2.3,5.5-2.3,8.9v46.7h-22.9Z"></path>
    <path class="st0" d="M605.7,163.6c-5.3,0-10-.9-14.1-2.8-4.1-1.8-7.4-4.6-9.8-8.2-2.4-3.6-3.6-8.2-3.6-13.6s.8-8.4,2.5-11.5c1.7-3.1,4-5.6,6.9-7.5s6.2-3.3,9.9-4.3c3.7-1,7.6-1.7,11.7-2,4.8-.5,8.7-1,11.6-1.4,2.9-.5,5.1-1.1,6.4-2,1.3-.9,2-2.2,2-4v-.3c0-3.4-1.1-6-3.2-7.9-2.1-1.9-5.2-2.8-9.1-2.8s-7.4.9-9.8,2.7c-2.4,1.8-4,4.1-4.8,6.8l-21.2-1.7c1.1-5,3.2-9.4,6.3-13,3.2-3.7,7.2-6.5,12.2-8.5s10.8-3,17.4-3,9,.5,13.2,1.6c4.2,1.1,8,2.7,11.2,5,3.3,2.3,5.9,5.2,7.8,8.7,1.9,3.5,2.8,7.8,2.8,12.7v55.7h-21.7v-11.5h-.6c-1.3,2.6-3.1,4.8-5.3,6.8-2.2,2-4.9,3.5-8,4.6s-6.7,1.6-10.8,1.6h0ZM612.3,147.8c3.4,0,6.3-.7,8.9-2s4.6-3.2,6.1-5.5c1.5-2.3,2.2-4.9,2.2-7.8v-8.8c-.7.5-1.7.9-2.9,1.3s-2.6.7-4.2,1c-1.5.3-3.1.6-4.6.8-1.5.2-2.9.4-4.2.6-2.7.4-5,1-7,1.9-2,.9-3.6,2-4.7,3.5-1.1,1.5-1.7,3.2-1.7,5.4,0,3.1,1.1,5.5,3.4,7.1,2.3,1.6,5.2,2.5,8.7,2.5h0Z"></path>
    <path class="st0" d="M677.7,68.8c-3.4,0-6.3-1.1-8.7-3.4s-3.6-5-3.6-8.2,1.2-5.9,3.7-8.2c2.4-2.3,5.3-3.4,8.7-3.4s6.3,1.1,8.7,3.4,3.6,5,3.6,8.2-1.2,5.9-3.6,8.2-5.3,3.4-8.7,3.4h0ZM666.2,162v-82.5h22.9v82.5h-22.9Z"></path>
    <path class="st0" d="M726.5,114.3v47.7h-22.9v-82.5h21.8v14.6h1c1.8-4.8,4.9-8.6,9.2-11.4s9.5-4.2,15.6-4.2,10.7,1.2,15,3.8,7.6,6.1,9.9,10.7c2.4,4.6,3.5,10.2,3.5,16.6v52.6h-22.9v-48.5c0-5-1.2-9-3.9-11.8s-6.2-4.3-10.8-4.3-5.8.7-8.1,2c-2.3,1.3-4.2,3.2-5.5,5.8s-2,5.6-2,9.1h0Z"></path>
    <path class="st0" d="M807.3,163.4c-3.5,0-6.6-1.3-9.1-3.8s-3.8-5.6-3.8-9.1,1.3-6.5,3.8-9,5.6-3.8,9.1-3.8,6.5,1.2,9,3.8,3.9,5.5,3.9,9-.6,4.5-1.8,6.5c-1.2,2-2.8,3.5-4.7,4.7-1.9,1.2-4.1,1.8-6.4,1.8h0Z"></path>
    <path class="st0" d="M858.7,163.6c-5.3,0-10-.9-14.1-2.8-4.1-1.8-7.4-4.6-9.8-8.2-2.4-3.6-3.6-8.2-3.6-13.6s.8-8.4,2.5-11.5c1.7-3.1,4-5.6,6.9-7.5s6.2-3.3,9.9-4.3c3.7-1,7.6-1.7,11.7-2,4.8-.5,8.7-1,11.6-1.4,2.9-.5,5.1-1.1,6.4-2,1.3-.9,2-2.2,2-4v-.3c0-3.4-1.1-6-3.2-7.9-2.1-1.9-5.2-2.8-9.1-2.8s-7.4.9-9.8,2.7c-2.4,1.8-4,4.1-4.8,6.8l-21.2-1.7c1.1-5,3.2-9.4,6.3-13,3.2-3.7,7.2-6.5,12.2-8.5s10.8-3,17.4-3,9,.5,13.2,1.6c4.2,1.1,8,2.7,11.2,5,3.3,2.3,5.9,5.2,7.8,8.7,1.9,3.5,2.8,7.8,2.8,12.7v55.7h-21.7v-11.5h-.6c-1.3,2.6-3.1,4.8-5.3,6.8-2.2,2-4.9,3.5-8,4.6s-6.7,1.6-10.8,1.6h0ZM865.3,147.8c3.4,0,6.3-.7,8.9-2,2.6-1.3,4.6-3.2,6.1-5.5,1.5-2.3,2.2-4.9,2.2-7.8v-8.8c-.7.5-1.7.9-2.9,1.3s-2.6.7-4.2,1c-1.5.3-3.1.6-4.6.8-1.5.2-2.9.4-4.2.6-2.7.4-5,1-7,1.9-2,.9-3.6,2-4.7,3.5-1.1,1.5-1.7,3.2-1.7,5.4,0,3.1,1.1,5.5,3.4,7.1,2.3,1.6,5.2,2.5,8.7,2.5h0Z"></path>
    <path class="st0" d="M930.7,68.8c-3.4,0-6.3-1.1-8.7-3.4-2.4-2.3-3.6-5-3.6-8.2s1.2-5.9,3.7-8.2c2.4-2.3,5.3-3.4,8.7-3.4s6.3,1.1,8.7,3.4c2.4,2.3,3.6,5,3.6,8.2s-1.2,5.9-3.6,8.2-5.3,3.4-8.7,3.4ZM919.2,162v-82.5h22.9v82.5h-22.9Z"></path>
  </g>
</svg>