<?xml version="1.0" encoding="UTF-8"?> <svg xmlns="http://www.w3.org/2000/svg" height="39.901" width="255.629"><g fill-rule="evenodd"><path d="M226.901 11.201h-.116v28.253h-5.672V.444h7.908l6.359 23.35h.114V.444h5.616v39.01h-6.473zm-18.28 28.7c-6.186 0-9.568-3.567-9.568-9.808V9.807c-.004-6.242 3.381-9.806 9.568-9.806s9.57 3.566 9.57 9.808v20.283c0 6.241-3.38 9.809-9.57 9.809zm3.267-30.484c0-2.786-1.262-3.845-3.267-3.845s-3.266 1.059-3.266 3.845v21.065c0 2.786 1.263 3.845 3.266 3.845s3.267-1.059 3.267-3.845zM189.771.444h6.3v39.01h-6.3zm-2.522 29.648c0 6.241-3.208 9.808-9.4 9.808s-9.4-3.567-9.4-9.808v-2.4h5.959v2.787c0 2.786 1.261 3.789 3.266 3.789s3.265-1 3.265-3.789c0-2.842-1.261-4.96-5.385-8.471-5.271-4.514-6.933-7.746-6.933-12.2 0-6.242 3.15-9.808 9.282-9.808s9.281 3.566 9.281 9.808v1.226h-5.959V9.417c0-2.787-1.145-3.846-3.15-3.846s-3.151 1.059-3.151 3.846c0 2.842 1.261 4.959 5.385 8.47 5.279 4.514 6.94 7.746 6.94 12.205zm-20.283 0c0 6.241-3.209 9.808-9.4 9.808s-9.4-3.567-9.4-9.808v-2.4h5.959v2.787c0 2.786 1.261 3.789 3.265 3.789s3.266-1 3.266-3.789c0-2.842-1.261-4.96-5.386-8.471-5.271-4.514-6.933-7.746-6.933-12.2.012-6.243 3.158-9.807 9.289-9.807s9.282 3.566 9.282 9.808v1.226h-5.959V9.417c0-2.787-1.145-3.846-3.15-3.846s-3.15 1.059-3.15 3.846c0 2.842 1.261 4.959 5.387 8.47 5.269 4.514 6.93 7.746 6.93 12.205zM139.349.444h6.3v39.01h-6.3zm-9.455 11.035h-.114l-4.241 27.975h-5.958l-4.584-27.585h-.115v27.585h-5.5V.444h8.767l4.584 27.7h.114l4.24-27.7h8.762v39.01h-5.958zm-22.92 18.613c0 6.241-3.209 9.808-9.4 9.808s-9.4-3.567-9.4-9.808v-2.4h5.959v2.787c0 2.786 1.261 3.789 3.266 3.789s3.265-1 3.265-3.789c0-2.842-1.261-4.96-5.385-8.471-5.271-4.514-6.933-7.746-6.933-12.2.003-6.243 3.16-9.807 9.291-9.807s9.282 3.566 9.282 9.808v1.226h-5.959V9.417c0-2.787-1.146-3.846-3.151-3.846s-3.151 1.059-3.151 3.846c0 2.842 1.261 4.959 5.385 8.47 5.271 4.514 6.932 7.746 6.932 12.2zM71.508 11.201h-.114v28.253h-5.672V.444h7.907l6.36 23.35h.115V.444h5.615v39.01h-6.475zM56.549 32.376h-7.731l-1.089 7.078h-5.786L48.359.444h9.226l6.417 39.01h-6.36zM52.714 7.355h-.115l-2.98 19.728h6.073zM33.749 34.662v-6.131c0-3.622-1.261-4.959-4.125-4.959h-2.175v15.882h-6.3V.444h9.511C37.192.444 40 3.398 40 9.416v3.066c0 4.012-1.318 6.576-4.126 7.857v.112c3.145 1.281 4.175 4.179 4.175 8.25v6.018a11.2 11.2 0 0 0 .688 4.737h-6.415c-.345-1.005-.573-1.618-.573-4.794zm-.057-24.633c0-2.786-.975-4.012-3.209-4.012h-3.034v11.984h2.46c2.349 0 3.783-1 3.783-4.124zm-20.8 29.425H6.589V6.017H0V.444h19.481v5.573h-6.589z" fill="#fff"></path><path d="M244.628 39.454v-10.7h11v10.7z" fill="#e60b7f"></path></g></svg> 